<?xml version="1.0"?>
<svg xmlns="http://www.w3.org/2000/svg" viewBox="0 0 64 64" width="512" height="512"><g id="outline"><path d="M22,5V32a3,3,0,0,0,3,3H39a3,3,0,0,0,3-3V5a3,3,0,0,0-3-3H25A3,3,0,0,0,22,5ZM40,32a1,1,0,0,1-1,1H25a1,1,0,0,1-1-1V29H40Zm0-5H24V8H40ZM40,5V6H24V5a1,1,0,0,1,1-1H39A1,1,0,0,1,40,5Z"/><path d="M26.293,20.707l3,3A1,1,0,0,0,30,24a.844.844,0,0,0,.087,0,1,1,0,0,0,.732-.423l7-10-1.638-1.146L29.864,21.45l-2.157-2.157Z"/><path d="M61,38H58V37a1,1,0,0,0-1-1H51a1,1,0,0,0-1,1v3H46.162l-8.846-2.948A1,1,0,0,0,37,37H24a1,1,0,0,0-.707.293L21.586,39H14V37a1,1,0,0,0-1-1H7a1,1,0,0,0-1,1v1H3a1,1,0,0,0-1,1V55a1,1,0,0,0,1,1H6v1a1,1,0,0,0,1,1h6a1,1,0,0,0,1-1V55h6.586l6.707,6.707A1,1,0,0,0,28,62h6a1,1,0,0,0,.707-1.707L34.414,60H38a1,1,0,0,0,.707-1.707L38.414,58H42a1,1,0,0,0,.707-1.707L42.414,56H46a1,1,0,0,0,.707-1.707L46.414,54H50v3a1,1,0,0,0,1,1h6a1,1,0,0,0,1-1V56h3a1,1,0,0,0,1-1V39A1,1,0,0,0,61,38ZM6,54H4V40H6Zm6,2H8V38h4Zm38-4H44.414l-3.707-3.707-1.414,1.414L43.586,54H40.414l-5.707-5.707-1.414,1.414L39.586,56H36.414l-5.707-5.707-1.414,1.414L35.586,58H32.414l-5.707-5.707-1.414,1.414L31.586,60H28.414l-6.707-6.707A1,1,0,0,0,21,53H14V41h5.586l-5.293,5.293A1,1,0,0,0,15,48h8a1,1,0,0,0,.707-.293L27.414,44h6.253L37.4,46.8l1.2-1.6-4-3A1,1,0,0,0,34,42H27a1,1,0,0,0-.707.293L22.586,46H17.414l7-7H36.838l8.846,2.948A1,1,0,0,0,46,42h4Zm6,4H52V38h4Zm4-2H58V40h2Z"/><rect x="26" y="10" width="2" height="2"/></g></svg>
